<mxfile host="app.diagrams.net" modified="2023-07-07T17:13:54.550Z" agent="Mozilla/5.0 (Macintosh; Intel Mac OS X 10_15_7) AppleWebKit/537.36 (KHTML, like Gecko) Chrome/114.0.0.0 Safari/537.36" etag="AS_kkU9NSvLFj2JxIHqb" version="21.6.1" type="device">
  <diagram name="Página-1" id="2KuyHeywnTmxG3gKitct">
    <mxGraphModel dx="1100" dy="516" grid="1" gridSize="10" guides="1" tooltips="1" connect="1" arrows="1" fold="1" page="1" pageScale="1" pageWidth="1169" pageHeight="827" math="0" shadow="0">
      <root>
        <mxCell id="0" />
        <mxCell id="1" parent="0" />
        <mxCell id="zEFcGhFF9lQZfTxit6zm-1" value="&lt;br&gt;&#xa;&lt;table cellspacing=&quot;0&quot; cellpadding=&quot;0&quot; class=&quot;t1&quot;&gt;&#xa;&lt;tbody&gt;&#xa;&lt;tr&gt;&#xa;&lt;td valign=&quot;top&quot; class=&quot;td1&quot;&gt;&#xa;&lt;p class=&quot;p2&quot;&gt;Caso de uso&lt;/p&gt;&#xa;&lt;/td&gt;&#xa;&lt;td valign=&quot;top&quot; class=&quot;td1&quot;&gt;&#xa;&lt;p class=&quot;p2&quot;&gt;Consultar lista producto&lt;/p&gt;&#xa;&lt;/td&gt;&#xa;&lt;/tr&gt;&#xa;&lt;tr&gt;&#xa;&lt;td valign=&quot;top&quot; class=&quot;td1&quot;&gt;&#xa;&lt;p class=&quot;p2&quot;&gt;Versión&lt;span class=&quot;Apple-converted-space&quot;&gt;&amp;nbsp; &amp;nbsp; &amp;nbsp; &amp;nbsp; &amp;nbsp; &lt;/span&gt;01&lt;/p&gt;&#xa;&lt;/td&gt;&#xa;&lt;td valign=&quot;top&quot; class=&quot;td1&quot;&gt;&#xa;&lt;p class=&quot;p2&quot;&gt;Fecha&lt;span class=&quot;Apple-converted-space&quot;&gt;&amp;nbsp; &amp;nbsp; &amp;nbsp; &amp;nbsp; &amp;nbsp; &lt;/span&gt;06/07/2023&lt;/p&gt;&#xa;&lt;/td&gt;&#xa;&lt;/tr&gt;&#xa;&lt;tr&gt;&#xa;&lt;td valign=&quot;top&quot; class=&quot;td1&quot;&gt;&#xa;&lt;p class=&quot;p2&quot;&gt;Autor&lt;/p&gt;&#xa;&lt;/td&gt;&#xa;&lt;td valign=&quot;top&quot; class=&quot;td1&quot;&gt;&#xa;&lt;p class=&quot;p2&quot;&gt;Alejandro Fernández Vidal&lt;/p&gt;&#xa;&lt;/td&gt;&#xa;&lt;/tr&gt;&#xa;&lt;tr&gt;&#xa;&lt;td valign=&quot;top&quot; class=&quot;td1&quot;&gt;&#xa;&lt;p class=&quot;p2&quot;&gt;Descripción&lt;/p&gt;&#xa;&lt;/td&gt;&#xa;&lt;td valign=&quot;top&quot; class=&quot;td1&quot;&gt;&#xa;&lt;p class=&quot;p2&quot;&gt;Usuario consulta la lista entera de productos existentes en la empresa&lt;/p&gt;&#xa;&lt;/td&gt;&#xa;&lt;/tr&gt;&#xa;&lt;tr&gt;&#xa;&lt;td valign=&quot;top&quot; class=&quot;td1&quot;&gt;&#xa;&lt;p class=&quot;p2&quot;&gt;Actores&lt;/p&gt;&#xa;&lt;/td&gt;&#xa;&lt;td valign=&quot;top&quot; class=&quot;td1&quot;&gt;&#xa;&lt;p class=&quot;p2&quot;&gt;Usuario&lt;/p&gt;&#xa;&lt;/td&gt;&#xa;&lt;/tr&gt;&#xa;&lt;tr&gt;&#xa;&lt;td valign=&quot;top&quot; class=&quot;td1&quot;&gt;&#xa;&lt;p class=&quot;p2&quot;&gt;Precondición&lt;/p&gt;&#xa;&lt;/td&gt;&#xa;&lt;td valign=&quot;top&quot; class=&quot;td1&quot;&gt;&#xa;&lt;p class=&quot;p2&quot;&gt;Usuario “logeado” y lista con elementos&lt;/p&gt;&#xa;&lt;/td&gt;&#xa;&lt;/tr&gt;&#xa;&lt;tr&gt;&#xa;&lt;td valign=&quot;top&quot; class=&quot;td1&quot;&gt;&#xa;&lt;p class=&quot;p2&quot;&gt;Flujo principal&lt;/p&gt;&#xa;&lt;/td&gt;&#xa;&lt;td valign=&quot;top&quot; class=&quot;td1&quot;&gt;&#xa;&lt;p class=&quot;p2&quot;&gt;1.-Usuario accede al botón menú&lt;span class=&quot;Apple-converted-space&quot;&gt;&amp;nbsp;&lt;/span&gt;&lt;/p&gt;&#xa;&lt;p class=&quot;p2&quot;&gt;2.-En desplegable selecciona botón lista productos&lt;/p&gt;&#xa;&lt;p class=&quot;p2&quot;&gt;3.-Sistema muestra listado de productos&lt;/p&gt;&#xa;&lt;/td&gt;&#xa;&lt;/tr&gt;&#xa;&lt;tr&gt;&#xa;&lt;td valign=&quot;top&quot; class=&quot;td1&quot;&gt;&#xa;&lt;p class=&quot;p2&quot;&gt;Subflujo&lt;/p&gt;&#xa;&lt;/td&gt;&#xa;&lt;td valign=&quot;top&quot; class=&quot;td1&quot;&gt;&#xa;&lt;p class=&quot;p2&quot;&gt;- - &lt;span class=&quot;Apple-converted-space&quot;&gt;&amp;nbsp;&lt;/span&gt;&lt;/p&gt;&#xa;&lt;/td&gt;&#xa;&lt;/tr&gt;&#xa;&lt;tr&gt;&#xa;&lt;td valign=&quot;top&quot; class=&quot;td1&quot;&gt;&#xa;&lt;p class=&quot;p2&quot;&gt;Flujos alternativos&lt;/p&gt;&#xa;&lt;/td&gt;&#xa;&lt;td valign=&quot;top&quot; class=&quot;td1&quot;&gt;&#xa;&lt;p class=&quot;p2&quot;&gt;3a.-Usuario pulsa botón para volver a la página principal&lt;/p&gt;&#xa;&lt;/td&gt;&#xa;&lt;/tr&gt;&#xa;&lt;tr&gt;&#xa;&lt;td valign=&quot;top&quot; class=&quot;td1&quot;&gt;&#xa;&lt;p class=&quot;p2&quot;&gt;Postcondicion&lt;/p&gt;&#xa;&lt;/td&gt;&#xa;&lt;td valign=&quot;top&quot; class=&quot;td1&quot;&gt;&#xa;&lt;p class=&quot;p2&quot;&gt;- -&lt;span class=&quot;Apple-converted-space&quot;&gt;&amp;nbsp;&lt;/span&gt;&lt;/p&gt;&#xa;&lt;/td&gt;&#xa;&lt;/tr&gt;&#xa;&lt;tr&gt;&#xa;&lt;td valign=&quot;top&quot; class=&quot;td1&quot;&gt;&#xa;&lt;p class=&quot;p2&quot;&gt;Requerimientos no funcionales&lt;/p&gt;&#xa;&lt;/td&gt;&#xa;&lt;td valign=&quot;top&quot; class=&quot;td1&quot;&gt;&#xa;&lt;p class=&quot;p2&quot;&gt;- -&lt;span class=&quot;Apple-converted-space&quot;&gt;&amp;nbsp;&lt;/span&gt;&lt;/p&gt;&#xa;&lt;/td&gt;&#xa;&lt;/tr&gt;&#xa;&lt;tr&gt;&#xa;&lt;td valign=&quot;top&quot; class=&quot;td1&quot;&gt;&#xa;&lt;p class=&quot;p2&quot;&gt;Prioridad&lt;/p&gt;&#xa;&lt;/td&gt;&#xa;&lt;td valign=&quot;top&quot; class=&quot;td1&quot;&gt;&#xa;&lt;p class=&quot;p2&quot;&gt;Alta&lt;/p&gt;&#xa;&lt;/td&gt;&#xa;&lt;/tr&gt;&#xa;&lt;tr&gt;&#xa;&lt;td valign=&quot;top&quot; class=&quot;td1&quot;&gt;&#xa;&lt;p class=&quot;p2&quot;&gt;Comentarios&lt;/p&gt;&#xa;&lt;/td&gt;&#xa;&lt;td valign=&quot;top&quot; class=&quot;td1&quot;&gt;&#xa;&lt;p class=&quot;p2&quot;&gt;- -&lt;/p&gt;&#xa;&lt;/td&gt;&#xa;&lt;/tr&gt;&#xa;&lt;/tbody&gt;&#xa;&lt;/table&gt;&#xa;&lt;br&gt;&#xa;&lt;table cellspacing=&quot;0&quot; cellpadding=&quot;0&quot; class=&quot;t1&quot;&gt;&#xa;&lt;tbody&gt;&#xa;&lt;tr&gt;&#xa;&lt;td valign=&quot;top&quot; class=&quot;td1&quot;&gt;&#xa;&lt;p class=&quot;p2&quot;&gt;Caso de uso&lt;/p&gt;&#xa;&lt;/td&gt;&#xa;&lt;td valign=&quot;top&quot; class=&quot;td1&quot;&gt;&#xa;&lt;p class=&quot;p2&quot;&gt;Buscar producto por nombre&lt;/p&gt;&#xa;&lt;/td&gt;&#xa;&lt;/tr&gt;&#xa;&lt;tr&gt;&#xa;&lt;td valign=&quot;top&quot; class=&quot;td1&quot;&gt;&#xa;&lt;p class=&quot;p2&quot;&gt;Versión&lt;span class=&quot;Apple-converted-space&quot;&gt;&amp;nbsp; &amp;nbsp; &amp;nbsp; &amp;nbsp; &amp;nbsp; &lt;/span&gt;01&lt;/p&gt;&#xa;&lt;/td&gt;&#xa;&lt;td valign=&quot;top&quot; class=&quot;td1&quot;&gt;&#xa;&lt;p class=&quot;p2&quot;&gt;Fecha&lt;span class=&quot;Apple-converted-space&quot;&gt;&amp;nbsp; &amp;nbsp; &amp;nbsp; &amp;nbsp; &amp;nbsp; &lt;/span&gt;06/07/2023&lt;/p&gt;&#xa;&lt;/td&gt;&#xa;&lt;/tr&gt;&#xa;&lt;tr&gt;&#xa;&lt;td valign=&quot;top&quot; class=&quot;td1&quot;&gt;&#xa;&lt;p class=&quot;p2&quot;&gt;Autor&lt;/p&gt;&#xa;&lt;/td&gt;&#xa;&lt;td valign=&quot;top&quot; class=&quot;td1&quot;&gt;&#xa;&lt;p class=&quot;p2&quot;&gt;Alejandro Fernández Vidal&lt;/p&gt;&#xa;&lt;/td&gt;&#xa;&lt;/tr&gt;&#xa;&lt;tr&gt;&#xa;&lt;td valign=&quot;top&quot; class=&quot;td1&quot;&gt;&#xa;&lt;p class=&quot;p2&quot;&gt;Descripción&lt;/p&gt;&#xa;&lt;/td&gt;&#xa;&lt;td valign=&quot;top&quot; class=&quot;td1&quot;&gt;&#xa;&lt;p class=&quot;p2&quot;&gt;Usuario busca productos por nombre de producto&lt;/p&gt;&#xa;&lt;/td&gt;&#xa;&lt;/tr&gt;&#xa;&lt;tr&gt;&#xa;&lt;td valign=&quot;top&quot; class=&quot;td1&quot;&gt;&#xa;&lt;p class=&quot;p2&quot;&gt;Actores&lt;/p&gt;&#xa;&lt;/td&gt;&#xa;&lt;td valign=&quot;top&quot; class=&quot;td1&quot;&gt;&#xa;&lt;p class=&quot;p2&quot;&gt;Usuario&lt;/p&gt;&#xa;&lt;/td&gt;&#xa;&lt;/tr&gt;&#xa;&lt;tr&gt;&#xa;&lt;td valign=&quot;top&quot; class=&quot;td1&quot;&gt;&#xa;&lt;p class=&quot;p2&quot;&gt;Precondición&lt;/p&gt;&#xa;&lt;/td&gt;&#xa;&lt;td valign=&quot;top&quot; class=&quot;td1&quot;&gt;&#xa;&lt;p class=&quot;p2&quot;&gt;Usuario “logeado” y producto existe en listado&lt;/p&gt;&#xa;&lt;/td&gt;&#xa;&lt;/tr&gt;&#xa;&lt;tr&gt;&#xa;&lt;td valign=&quot;top&quot; class=&quot;td1&quot;&gt;&#xa;&lt;p class=&quot;p2&quot;&gt;Flujo principal&lt;/p&gt;&#xa;&lt;/td&gt;&#xa;&lt;td valign=&quot;top&quot; class=&quot;td1&quot;&gt;&#xa;&lt;p class=&quot;p2&quot;&gt;1.-Usuario accede al botón menú&lt;/p&gt;&#xa;&lt;p class=&quot;p2&quot;&gt;2.-En desplegable selecciona botón buscar producto&lt;/p&gt;&#xa;&lt;p class=&quot;p2&quot;&gt;3.-Sistema abre formulario de búsqueda&lt;/p&gt;&#xa;&lt;p class=&quot;p2&quot;&gt;4.-Usuario introduce nombre producto y pulsa botón buscar&lt;/p&gt;&#xa;&lt;p class=&quot;p2&quot;&gt;5.-Sistema muestra producto&lt;/p&gt;&#xa;&lt;/td&gt;&#xa;&lt;/tr&gt;&#xa;&lt;tr&gt;&#xa;&lt;td valign=&quot;top&quot; class=&quot;td1&quot;&gt;&#xa;&lt;p class=&quot;p2&quot;&gt;Subflujo&lt;/p&gt;&#xa;&lt;/td&gt;&#xa;&lt;td valign=&quot;top&quot; class=&quot;td1&quot;&gt;&#xa;&lt;p class=&quot;p3&quot;&gt;&lt;br&gt;&lt;/p&gt;&#xa;&lt;/td&gt;&#xa;&lt;/tr&gt;&#xa;&lt;tr&gt;&#xa;&lt;td valign=&quot;top&quot; class=&quot;td1&quot;&gt;&#xa;&lt;p class=&quot;p2&quot;&gt;Flujos alternativos&lt;/p&gt;&#xa;&lt;/td&gt;&#xa;&lt;td valign=&quot;top&quot; class=&quot;td1&quot;&gt;&#xa;&lt;p class=&quot;p2&quot;&gt;3a.-Usuario cancela búsqueda con botón y vuelve a la pantalla inicial&lt;/p&gt;&#xa;&lt;p class=&quot;p2&quot;&gt;4a.-Usuario se equivoca con nombre de producto sistema lanza mensaje de error”no existe producto”&lt;/p&gt;&#xa;&lt;p class=&quot;p2&quot;&gt;4a.-Formulario sin rellenar sale mensaje de error introduce algún valor&lt;/p&gt;&#xa;&lt;/td&gt;&#xa;&lt;/tr&gt;&#xa;&lt;tr&gt;&#xa;&lt;td valign=&quot;top&quot; class=&quot;td1&quot;&gt;&#xa;&lt;p class=&quot;p2&quot;&gt;Postcondicion&lt;/p&gt;&#xa;&lt;/td&gt;&#xa;&lt;td valign=&quot;top&quot; class=&quot;td1&quot;&gt;&#xa;&lt;p class=&quot;p2&quot;&gt;Sistema muestra listado productos&lt;/p&gt;&#xa;&lt;/td&gt;&#xa;&lt;/tr&gt;&#xa;&lt;tr&gt;&#xa;&lt;td valign=&quot;top&quot; class=&quot;td1&quot;&gt;&#xa;&lt;p class=&quot;p2&quot;&gt;Requerimientos no funcionales&lt;/p&gt;&#xa;&lt;/td&gt;&#xa;&lt;td valign=&quot;top&quot; class=&quot;td1&quot;&gt;&#xa;&lt;p class=&quot;p2&quot;&gt;- -&lt;/p&gt;&#xa;&lt;/td&gt;&#xa;&lt;/tr&gt;&#xa;&lt;tr&gt;&#xa;&lt;td valign=&quot;top&quot; class=&quot;td1&quot;&gt;&#xa;&lt;p class=&quot;p2&quot;&gt;Prioridad&lt;/p&gt;&#xa;&lt;/td&gt;&#xa;&lt;td valign=&quot;top&quot; class=&quot;td1&quot;&gt;&#xa;&lt;p class=&quot;p2&quot;&gt;Media&lt;/p&gt;&#xa;&lt;/td&gt;&#xa;&lt;/tr&gt;&#xa;&lt;tr&gt;&#xa;&lt;td valign=&quot;top&quot; class=&quot;td1&quot;&gt;&#xa;&lt;p class=&quot;p2&quot;&gt;Comentarios&lt;/p&gt;&#xa;&lt;/td&gt;&#xa;&lt;td valign=&quot;top&quot; class=&quot;td1&quot;&gt;&#xa;&lt;p class=&quot;p2&quot;&gt;- -&lt;/p&gt;&#xa;&lt;/td&gt;&#xa;&lt;/tr&gt;&#xa;&lt;/tbody&gt;&#xa;&lt;/table&gt;&#xa;&lt;br&gt;&#xa;&lt;table cellspacing=&quot;0&quot; cellpadding=&quot;0&quot; class=&quot;t1&quot;&gt;&#xa;&lt;tbody&gt;&#xa;&lt;tr&gt;&#xa;&lt;td valign=&quot;top&quot; class=&quot;td1&quot;&gt;&#xa;&lt;p class=&quot;p2&quot;&gt;Caso de uso&lt;/p&gt;&#xa;&lt;/td&gt;&#xa;&lt;td valign=&quot;top&quot; class=&quot;td1&quot;&gt;&#xa;&lt;p class=&quot;p2&quot;&gt;Ver ficha producto&lt;/p&gt;&#xa;&lt;/td&gt;&#xa;&lt;/tr&gt;&#xa;&lt;tr&gt;&#xa;&lt;td valign=&quot;top&quot; class=&quot;td1&quot;&gt;&#xa;&lt;p class=&quot;p2&quot;&gt;Versión &lt;span class=&quot;Apple-converted-space&quot;&gt;&amp;nbsp; &amp;nbsp; &amp;nbsp; &amp;nbsp; &lt;/span&gt;01&lt;/p&gt;&#xa;&lt;/td&gt;&#xa;&lt;td valign=&quot;top&quot; class=&quot;td1&quot;&gt;&#xa;&lt;p class=&quot;p2&quot;&gt;Fecha&lt;span class=&quot;Apple-converted-space&quot;&gt;&amp;nbsp; &amp;nbsp; &amp;nbsp; &amp;nbsp; &amp;nbsp; &lt;/span&gt;06/07/2023&lt;/p&gt;&#xa;&lt;/td&gt;&#xa;&lt;/tr&gt;&#xa;&lt;tr&gt;&#xa;&lt;td valign=&quot;top&quot; class=&quot;td1&quot;&gt;&#xa;&lt;p class=&quot;p2&quot;&gt;Autor&lt;/p&gt;&#xa;&lt;/td&gt;&#xa;&lt;td valign=&quot;top&quot; class=&quot;td1&quot;&gt;&#xa;&lt;p class=&quot;p2&quot;&gt;Alejandro Fernández Vidal&lt;/p&gt;&#xa;&lt;/td&gt;&#xa;&lt;/tr&gt;&#xa;&lt;tr&gt;&#xa;&lt;td valign=&quot;top&quot; class=&quot;td1&quot;&gt;&#xa;&lt;p class=&quot;p2&quot;&gt;Descripción&lt;/p&gt;&#xa;&lt;/td&gt;&#xa;&lt;td valign=&quot;top&quot; class=&quot;td1&quot;&gt;&#xa;&lt;p class=&quot;p2&quot;&gt;Usuario quiere ver ficha de producto para consultar&lt;/p&gt;&#xa;&lt;/td&gt;&#xa;&lt;/tr&gt;&#xa;&lt;tr&gt;&#xa;&lt;td valign=&quot;top&quot; class=&quot;td1&quot;&gt;&#xa;&lt;p class=&quot;p2&quot;&gt;Actores&lt;/p&gt;&#xa;&lt;/td&gt;&#xa;&lt;td valign=&quot;top&quot; class=&quot;td1&quot;&gt;&#xa;&lt;p class=&quot;p2&quot;&gt;Usuario&lt;/p&gt;&#xa;&lt;/td&gt;&#xa;&lt;/tr&gt;&#xa;&lt;tr&gt;&#xa;&lt;td valign=&quot;top&quot; class=&quot;td1&quot;&gt;&#xa;&lt;p class=&quot;p2&quot;&gt;Precondición&lt;/p&gt;&#xa;&lt;/td&gt;&#xa;&lt;td valign=&quot;top&quot; class=&quot;td1&quot;&gt;&#xa;&lt;p class=&quot;p2&quot;&gt;Usuario “logeado” y producto existe&lt;/p&gt;&#xa;&lt;/td&gt;&#xa;&lt;/tr&gt;&#xa;&lt;tr&gt;&#xa;&lt;td valign=&quot;top&quot; class=&quot;td1&quot;&gt;&#xa;&lt;p class=&quot;p2&quot;&gt;Flujo principal&lt;/p&gt;&#xa;&lt;/td&gt;&#xa;&lt;td valign=&quot;top&quot; class=&quot;td1&quot;&gt;&#xa;&lt;p class=&quot;p2&quot;&gt;1.-Usuario pulsa el botón menú&lt;/p&gt;&#xa;&lt;p class=&quot;p2&quot;&gt;2.-En desplegable selecciona botón buscar producto&lt;/p&gt;&#xa;&lt;p class=&quot;p2&quot;&gt;3.-Sistema abre formulario de búsqueda&lt;/p&gt;&#xa;&lt;p class=&quot;p2&quot;&gt;4.-Usuario introduce nombre producto y pulsa botón buscar&lt;/p&gt;&#xa;&lt;p class=&quot;p2&quot;&gt;5.-Sistema muestra producto&lt;/p&gt;&#xa;&lt;p class=&quot;p2&quot;&gt;6.-Usuario pulsa botón detalles&lt;/p&gt;&#xa;&lt;p class=&quot;p2&quot;&gt;7.-Sistema muestra ficha producto&lt;/p&gt;&#xa;&lt;/td&gt;&#xa;&lt;/tr&gt;&#xa;&lt;tr&gt;&#xa;&lt;td valign=&quot;top&quot; class=&quot;td1&quot;&gt;&#xa;&lt;p class=&quot;p2&quot;&gt;Subflujo&lt;/p&gt;&#xa;&lt;/td&gt;&#xa;&lt;td valign=&quot;top&quot; class=&quot;td1&quot;&gt;&#xa;&lt;p class=&quot;p2&quot;&gt;- -&lt;/p&gt;&#xa;&lt;/td&gt;&#xa;&lt;/tr&gt;&#xa;&lt;tr&gt;&#xa;&lt;td valign=&quot;top&quot; class=&quot;td1&quot;&gt;&#xa;&lt;p class=&quot;p2&quot;&gt;Flujos alternativos&lt;/p&gt;&#xa;&lt;/td&gt;&#xa;&lt;td valign=&quot;top&quot; class=&quot;td1&quot;&gt;&#xa;&lt;p class=&quot;p2&quot;&gt;3a.-Usuario cancela búsqueda con botón y vuelve a la pantalla inicial&lt;/p&gt;&#xa;&lt;p class=&quot;p2&quot;&gt;4a.-Usuario se equivoca con nombre de producto sistema lanza mensaje de error”no existe producto”&lt;/p&gt;&#xa;&lt;p class=&quot;p2&quot;&gt;4a.-Formulario sin rellenar sale mensaje de error introduce algún valor&lt;/p&gt;&#xa;&lt;p class=&quot;p2&quot;&gt;5a.-Usuario cancela búsqueda con botón y vuelve a la pantalla inicial&lt;/p&gt;&#xa;&lt;p class=&quot;p2&quot;&gt;7a.-Usuario cancela búsqueda con botón y vuelve a la pantalla inicial&lt;/p&gt;&#xa;&lt;/td&gt;&#xa;&lt;/tr&gt;&#xa;&lt;tr&gt;&#xa;&lt;td valign=&quot;top&quot; class=&quot;td1&quot;&gt;&#xa;&lt;p class=&quot;p2&quot;&gt;Postcondicion&lt;/p&gt;&#xa;&lt;/td&gt;&#xa;&lt;td valign=&quot;top&quot; class=&quot;td1&quot;&gt;&#xa;&lt;p class=&quot;p2&quot;&gt;Sistema muestra ficha producto&lt;/p&gt;&#xa;&lt;/td&gt;&#xa;&lt;/tr&gt;&#xa;&lt;tr&gt;&#xa;&lt;td valign=&quot;top&quot; class=&quot;td1&quot;&gt;&#xa;&lt;p class=&quot;p2&quot;&gt;Requerimientos no funcionales&lt;/p&gt;&#xa;&lt;/td&gt;&#xa;&lt;td valign=&quot;top&quot; class=&quot;td1&quot;&gt;&#xa;&lt;p class=&quot;p2&quot;&gt;- -&lt;/p&gt;&#xa;&lt;/td&gt;&#xa;&lt;/tr&gt;&#xa;&lt;tr&gt;&#xa;&lt;td valign=&quot;top&quot; class=&quot;td1&quot;&gt;&#xa;&lt;p class=&quot;p2&quot;&gt;Prioridad&lt;/p&gt;&#xa;&lt;/td&gt;&#xa;&lt;td valign=&quot;top&quot; class=&quot;td1&quot;&gt;&#xa;&lt;p class=&quot;p2&quot;&gt;Media&lt;/p&gt;&#xa;&lt;/td&gt;&#xa;&lt;/tr&gt;&#xa;&lt;tr&gt;&#xa;&lt;td valign=&quot;top&quot; class=&quot;td1&quot;&gt;&#xa;&lt;p class=&quot;p2&quot;&gt;Comentarios&lt;/p&gt;&#xa;&lt;/td&gt;&#xa;&lt;td valign=&quot;top&quot; class=&quot;td1&quot;&gt;&#xa;&lt;p class=&quot;p2&quot;&gt;- -&lt;/p&gt;&#xa;&lt;/td&gt;&#xa;&lt;/tr&gt;&#xa;&lt;/tbody&gt;&#xa;&lt;/table&gt;&#xa;&lt;br&gt;&#xa;&lt;table cellspacing=&quot;0&quot; cellpadding=&quot;0&quot; class=&quot;t1&quot;&gt;&#xa;&lt;tbody&gt;&#xa;&lt;tr&gt;&#xa;&lt;td valign=&quot;top&quot; class=&quot;td1&quot;&gt;&#xa;&lt;p class=&quot;p2&quot;&gt;Caso de uso&lt;/p&gt;&#xa;&lt;/td&gt;&#xa;&lt;td valign=&quot;top&quot; class=&quot;td1&quot;&gt;&#xa;&lt;p class=&quot;p2&quot;&gt;Gestión productos&lt;/p&gt;&#xa;&lt;/td&gt;&#xa;&lt;/tr&gt;&#xa;&lt;tr&gt;&#xa;&lt;td valign=&quot;top&quot; class=&quot;td1&quot;&gt;&#xa;&lt;p class=&quot;p2&quot;&gt;Versión&lt;span class=&quot;Apple-converted-space&quot;&gt;&amp;nbsp; &amp;nbsp; &amp;nbsp; &amp;nbsp; &amp;nbsp; &lt;/span&gt;01&lt;/p&gt;&#xa;&lt;/td&gt;&#xa;&lt;td valign=&quot;top&quot; class=&quot;td1&quot;&gt;&#xa;&lt;p class=&quot;p2&quot;&gt;Fecha &lt;span class=&quot;Apple-converted-space&quot;&gt;&amp;nbsp; &amp;nbsp; &amp;nbsp; &amp;nbsp; &lt;/span&gt;06/07/2023&lt;/p&gt;&#xa;&lt;/td&gt;&#xa;&lt;/tr&gt;&#xa;&lt;tr&gt;&#xa;&lt;td valign=&quot;top&quot; class=&quot;td1&quot;&gt;&#xa;&lt;p class=&quot;p2&quot;&gt;Autor&lt;/p&gt;&#xa;&lt;/td&gt;&#xa;&lt;td valign=&quot;top&quot; class=&quot;td1&quot;&gt;&#xa;&lt;p class=&quot;p2&quot;&gt;Alejandro Fernández Vidal&lt;/p&gt;&#xa;&lt;/td&gt;&#xa;&lt;/tr&gt;&#xa;&lt;tr&gt;&#xa;&lt;td valign=&quot;top&quot; class=&quot;td1&quot;&gt;&#xa;&lt;p class=&quot;p2&quot;&gt;Descripción&lt;/p&gt;&#xa;&lt;/td&gt;&#xa;&lt;td valign=&quot;top&quot; class=&quot;td1&quot;&gt;&#xa;&lt;p class=&quot;p2&quot;&gt;Proceso para gestionar productos&lt;/p&gt;&#xa;&lt;/td&gt;&#xa;&lt;/tr&gt;&#xa;&lt;tr&gt;&#xa;&lt;td valign=&quot;top&quot; class=&quot;td1&quot;&gt;&#xa;&lt;p class=&quot;p2&quot;&gt;Actores&lt;/p&gt;&#xa;&lt;/td&gt;&#xa;&lt;td valign=&quot;top&quot; class=&quot;td1&quot;&gt;&#xa;&lt;p class=&quot;p2&quot;&gt;Gestor&lt;/p&gt;&#xa;&lt;/td&gt;&#xa;&lt;/tr&gt;&#xa;&lt;tr&gt;&#xa;&lt;td valign=&quot;top&quot; class=&quot;td1&quot;&gt;&#xa;&lt;p class=&quot;p2&quot;&gt;Precondición&lt;/p&gt;&#xa;&lt;/td&gt;&#xa;&lt;td valign=&quot;top&quot; class=&quot;td1&quot;&gt;&#xa;&lt;p class=&quot;p2&quot;&gt;Usuario “logeado” y es gestor&lt;/p&gt;&#xa;&lt;/td&gt;&#xa;&lt;/tr&gt;&#xa;&lt;tr&gt;&#xa;&lt;td valign=&quot;top&quot; class=&quot;td1&quot;&gt;&#xa;&lt;p class=&quot;p2&quot;&gt;Flujo principal&lt;/p&gt;&#xa;&lt;/td&gt;&#xa;&lt;td valign=&quot;top&quot; class=&quot;td1&quot;&gt;&#xa;&lt;p class=&quot;p2&quot;&gt;1.-Gestor pulsa el botón menú&lt;/p&gt;&#xa;&lt;p class=&quot;p2&quot;&gt;2.-Sistema muestra menú desplegable&lt;/p&gt;&#xa;&lt;p class=&quot;p2&quot;&gt;3.-Gestor pulsa botón gestionar productos&lt;/p&gt;&#xa;&lt;p class=&quot;p2&quot;&gt;4.-Sistema muestra opciones de gestión de productos&lt;/p&gt;&#xa;&lt;/td&gt;&#xa;&lt;/tr&gt;&#xa;&lt;tr&gt;&#xa;&lt;td valign=&quot;top&quot; class=&quot;td1&quot;&gt;&#xa;&lt;p class=&quot;p2&quot;&gt;Subflujo&lt;/p&gt;&#xa;&lt;/td&gt;&#xa;&lt;td valign=&quot;top&quot; class=&quot;td1&quot;&gt;&#xa;&lt;p class=&quot;p2&quot;&gt;- -&lt;/p&gt;&#xa;&lt;/td&gt;&#xa;&lt;/tr&gt;&#xa;&lt;tr&gt;&#xa;&lt;td valign=&quot;top&quot; class=&quot;td1&quot;&gt;&#xa;&lt;p class=&quot;p2&quot;&gt;Flujos alternativos&lt;/p&gt;&#xa;&lt;/td&gt;&#xa;&lt;td valign=&quot;top&quot; class=&quot;td1&quot;&gt;&#xa;&lt;p class=&quot;p2&quot;&gt;4a.-Gestor desea salir a la pantalla de inicio con botón salir&lt;/p&gt;&#xa;&lt;/td&gt;&#xa;&lt;/tr&gt;&#xa;&lt;tr&gt;&#xa;&lt;td valign=&quot;top&quot; class=&quot;td1&quot;&gt;&#xa;&lt;p class=&quot;p2&quot;&gt;Postcondicion&lt;/p&gt;&#xa;&lt;/td&gt;&#xa;&lt;td valign=&quot;top&quot; class=&quot;td1&quot;&gt;&#xa;&lt;p class=&quot;p2&quot;&gt;- -&lt;/p&gt;&#xa;&lt;/td&gt;&#xa;&lt;/tr&gt;&#xa;&lt;tr&gt;&#xa;&lt;td valign=&quot;top&quot; class=&quot;td1&quot;&gt;&#xa;&lt;p class=&quot;p2&quot;&gt;Requerimientos no funcionales&lt;/p&gt;&#xa;&lt;/td&gt;&#xa;&lt;td valign=&quot;top&quot; class=&quot;td1&quot;&gt;&#xa;&lt;p class=&quot;p2&quot;&gt;- -&lt;/p&gt;&#xa;&lt;/td&gt;&#xa;&lt;/tr&gt;&#xa;&lt;tr&gt;&#xa;&lt;td valign=&quot;top&quot; class=&quot;td1&quot;&gt;&#xa;&lt;p class=&quot;p2&quot;&gt;Prioridad&lt;/p&gt;&#xa;&lt;/td&gt;&#xa;&lt;td valign=&quot;top&quot; class=&quot;td1&quot;&gt;&#xa;&lt;p class=&quot;p2&quot;&gt;Alta&lt;/p&gt;&#xa;&lt;/td&gt;&#xa;&lt;/tr&gt;&#xa;&lt;tr&gt;&#xa;&lt;td valign=&quot;top&quot; class=&quot;td1&quot;&gt;&#xa;&lt;p class=&quot;p2&quot;&gt;Comentarios&lt;/p&gt;&#xa;&lt;/td&gt;&#xa;&lt;td valign=&quot;top&quot; class=&quot;td1&quot;&gt;&#xa;&lt;p class=&quot;p2&quot;&gt;- -&lt;/p&gt;&#xa;&lt;/td&gt;&#xa;&lt;/tr&gt;&#xa;&lt;/tbody&gt;&#xa;&lt;/table&gt;&#xa;&lt;br&gt;&#xa;&lt;table cellspacing=&quot;0&quot; cellpadding=&quot;0&quot; class=&quot;t1&quot;&gt;&#xa;&lt;tbody&gt;&#xa;&lt;tr&gt;&#xa;&lt;td valign=&quot;top&quot; class=&quot;td1&quot;&gt;&#xa;&lt;p class=&quot;p2&quot;&gt;Caso de uso&lt;/p&gt;&#xa;&lt;/td&gt;&#xa;&lt;td valign=&quot;top&quot; class=&quot;td1&quot;&gt;&#xa;&lt;p class=&quot;p2&quot;&gt;Crear producto&lt;/p&gt;&#xa;&lt;/td&gt;&#xa;&lt;/tr&gt;&#xa;&lt;tr&gt;&#xa;&lt;td valign=&quot;top&quot; class=&quot;td1&quot;&gt;&#xa;&lt;p class=&quot;p2&quot;&gt;Versión &lt;span class=&quot;Apple-converted-space&quot;&gt;&amp;nbsp; &amp;nbsp; &amp;nbsp; &amp;nbsp; &lt;/span&gt;01&lt;/p&gt;&#xa;&lt;/td&gt;&#xa;&lt;td valign=&quot;top&quot; class=&quot;td1&quot;&gt;&#xa;&lt;p class=&quot;p2&quot;&gt;Fecha&lt;span class=&quot;Apple-converted-space&quot;&gt;&amp;nbsp; &amp;nbsp; &amp;nbsp; &amp;nbsp; &lt;/span&gt;06/07/2023&lt;/p&gt;&#xa;&lt;/td&gt;&#xa;&lt;/tr&gt;&#xa;&lt;tr&gt;&#xa;&lt;td valign=&quot;top&quot; class=&quot;td1&quot;&gt;&#xa;&lt;p class=&quot;p2&quot;&gt;Autor&lt;/p&gt;&#xa;&lt;/td&gt;&#xa;&lt;td valign=&quot;top&quot; class=&quot;td1&quot;&gt;&#xa;&lt;p class=&quot;p2&quot;&gt;Alejandro Fernández Vidal&lt;/p&gt;&#xa;&lt;/td&gt;&#xa;&lt;/tr&gt;&#xa;&lt;tr&gt;&#xa;&lt;td valign=&quot;top&quot; class=&quot;td1&quot;&gt;&#xa;&lt;p class=&quot;p2&quot;&gt;Descripción&lt;/p&gt;&#xa;&lt;/td&gt;&#xa;&lt;td valign=&quot;top&quot; class=&quot;td1&quot;&gt;&#xa;&lt;p class=&quot;p2&quot;&gt;Proceso para crear producto en sistema&lt;/p&gt;&#xa;&lt;/td&gt;&#xa;&lt;/tr&gt;&#xa;&lt;tr&gt;&#xa;&lt;td valign=&quot;top&quot; class=&quot;td1&quot;&gt;&#xa;&lt;p class=&quot;p2&quot;&gt;Actores&lt;/p&gt;&#xa;&lt;/td&gt;&#xa;&lt;td valign=&quot;top&quot; class=&quot;td1&quot;&gt;&#xa;&lt;p class=&quot;p2&quot;&gt;Gestor&lt;/p&gt;&#xa;&lt;/td&gt;&#xa;&lt;/tr&gt;&#xa;&lt;tr&gt;&#xa;&lt;td valign=&quot;top&quot; class=&quot;td1&quot;&gt;&#xa;&lt;p class=&quot;p2&quot;&gt;Precondición&lt;/p&gt;&#xa;&lt;/td&gt;&#xa;&lt;td valign=&quot;top&quot; class=&quot;td1&quot;&gt;&#xa;&lt;p class=&quot;p2&quot;&gt;Usuario “logeado” y es gestor y producto a crear no existe&lt;/p&gt;&#xa;&lt;/td&gt;&#xa;&lt;/tr&gt;&#xa;&lt;tr&gt;&#xa;&lt;td valign=&quot;top&quot; class=&quot;td1&quot;&gt;&#xa;&lt;p class=&quot;p2&quot;&gt;Flujo principal&lt;/p&gt;&#xa;&lt;/td&gt;&#xa;&lt;td valign=&quot;top&quot; class=&quot;td1&quot;&gt;&#xa;&lt;p class=&quot;p2&quot;&gt;1.-Gestor pulsa el botón menú&lt;/p&gt;&#xa;&lt;p class=&quot;p2&quot;&gt;2.-Sistema muestra menú desplegable&lt;/p&gt;&#xa;&lt;p class=&quot;p2&quot;&gt;3.-Gestor pulsa botón gestionar productos&lt;/p&gt;&#xa;&lt;p class=&quot;p2&quot;&gt;4.-Sistema muestra opciones de gestión de productos&lt;/p&gt;&#xa;&lt;p class=&quot;p2&quot;&gt;5.-Gestor pulsa botón crear producto&lt;/p&gt;&#xa;&lt;p class=&quot;p2&quot;&gt;6.-Sistema abre formulario para crear producto&lt;/p&gt;&#xa;&lt;p class=&quot;p2&quot;&gt;7.-Gestor rellena campos formulario y lo envía con botón&lt;/p&gt;&#xa;&lt;p class=&quot;p2&quot;&gt;8.-Sistema crea producto&lt;/p&gt;&#xa;&lt;/td&gt;&#xa;&lt;/tr&gt;&#xa;&lt;tr&gt;&#xa;&lt;td valign=&quot;top&quot; class=&quot;td1&quot;&gt;&#xa;&lt;p class=&quot;p2&quot;&gt;Subflujo&lt;/p&gt;&#xa;&lt;/td&gt;&#xa;&lt;td valign=&quot;top&quot; class=&quot;td1&quot;&gt;&#xa;&lt;p class=&quot;p2&quot;&gt;- -&lt;/p&gt;&#xa;&lt;/td&gt;&#xa;&lt;/tr&gt;&#xa;&lt;tr&gt;&#xa;&lt;td valign=&quot;top&quot; class=&quot;td1&quot;&gt;&#xa;&lt;p class=&quot;p2&quot;&gt;Flujos alternativos&lt;/p&gt;&#xa;&lt;/td&gt;&#xa;&lt;td valign=&quot;top&quot; class=&quot;td1&quot;&gt;&#xa;&lt;p class=&quot;p2&quot;&gt;4a.-Gestor desea salir a la pantalla de inicio con botón salir&lt;/p&gt;&#xa;&lt;p class=&quot;p2&quot;&gt;6a.-Gestor desea salir a la pantalla de inicio con botón salir&lt;/p&gt;&#xa;&lt;p class=&quot;p2&quot;&gt;7a.-Formulario sin rellenar sale mensaje de error “introduce algún valor”&lt;/p&gt;&#xa;&lt;p class=&quot;p2&quot;&gt;7a.-Si producto ya existe mensaje de error “producto ya existe” vuelve al formulario&lt;/p&gt;&#xa;&lt;/td&gt;&#xa;&lt;/tr&gt;&#xa;&lt;tr&gt;&#xa;&lt;td valign=&quot;top&quot; class=&quot;td1&quot;&gt;&#xa;&lt;p class=&quot;p2&quot;&gt;Postcondicion&lt;/p&gt;&#xa;&lt;/td&gt;&#xa;&lt;td valign=&quot;top&quot; class=&quot;td1&quot;&gt;&#xa;&lt;p class=&quot;p2&quot;&gt;Producto creado en sistema&lt;/p&gt;&#xa;&lt;/td&gt;&#xa;&lt;/tr&gt;&#xa;&lt;tr&gt;&#xa;&lt;td valign=&quot;top&quot; class=&quot;td1&quot;&gt;&#xa;&lt;p class=&quot;p2&quot;&gt;Requerimientos no funcionales&lt;/p&gt;&#xa;&lt;/td&gt;&#xa;&lt;td valign=&quot;top&quot; class=&quot;td1&quot;&gt;&#xa;&lt;p class=&quot;p2&quot;&gt;- -&lt;/p&gt;&#xa;&lt;/td&gt;&#xa;&lt;/tr&gt;&#xa;&lt;tr&gt;&#xa;&lt;td valign=&quot;top&quot; class=&quot;td1&quot;&gt;&#xa;&lt;p class=&quot;p2&quot;&gt;Prioridad&lt;/p&gt;&#xa;&lt;/td&gt;&#xa;&lt;td valign=&quot;top&quot; class=&quot;td1&quot;&gt;&#xa;&lt;p class=&quot;p2&quot;&gt;Media&lt;/p&gt;&#xa;&lt;/td&gt;&#xa;&lt;/tr&gt;&#xa;&lt;tr&gt;&#xa;&lt;td valign=&quot;top&quot; class=&quot;td1&quot;&gt;&#xa;&lt;p class=&quot;p2&quot;&gt;Comentarios&lt;/p&gt;&#xa;&lt;/td&gt;&#xa;&lt;td valign=&quot;top&quot; class=&quot;td1&quot;&gt;&#xa;&lt;p class=&quot;p2&quot;&gt;- -&lt;/p&gt;&#xa;&lt;/td&gt;&#xa;&lt;/tr&gt;&#xa;&lt;/tbody&gt;&#xa;&lt;/table&gt;&#xa;&lt;br&gt;&#xa;&lt;table cellspacing=&quot;0&quot; cellpadding=&quot;0&quot; class=&quot;t1&quot;&gt;&#xa;&lt;tbody&gt;&#xa;&lt;tr&gt;&#xa;&lt;td valign=&quot;top&quot; class=&quot;td1&quot;&gt;&#xa;&lt;p class=&quot;p2&quot;&gt;Caso de uso&lt;/p&gt;&#xa;&lt;/td&gt;&#xa;&lt;td valign=&quot;top&quot; class=&quot;td1&quot;&gt;&#xa;&lt;p class=&quot;p2&quot;&gt;Modificar producto&lt;/p&gt;&#xa;&lt;/td&gt;&#xa;&lt;/tr&gt;&#xa;&lt;tr&gt;&#xa;&lt;td valign=&quot;top&quot; class=&quot;td1&quot;&gt;&#xa;&lt;p class=&quot;p2&quot;&gt;Versión&lt;span class=&quot;Apple-converted-space&quot;&gt;&amp;nbsp; &amp;nbsp; &amp;nbsp; &amp;nbsp; &lt;/span&gt;01&lt;/p&gt;&#xa;&lt;/td&gt;&#xa;&lt;td valign=&quot;top&quot; class=&quot;td1&quot;&gt;&#xa;&lt;p class=&quot;p2&quot;&gt;Fecha &lt;span class=&quot;Apple-converted-space&quot;&gt;&amp;nbsp; &amp;nbsp; &amp;nbsp; &amp;nbsp; &amp;nbsp; &lt;/span&gt;06/07/2023&lt;/p&gt;&#xa;&lt;/td&gt;&#xa;&lt;/tr&gt;&#xa;&lt;tr&gt;&#xa;&lt;td valign=&quot;top&quot; class=&quot;td1&quot;&gt;&#xa;&lt;p class=&quot;p2&quot;&gt;Autor&lt;/p&gt;&#xa;&lt;/td&gt;&#xa;&lt;td valign=&quot;top&quot; class=&quot;td1&quot;&gt;&#xa;&lt;p class=&quot;p2&quot;&gt;Alejandro Fernández Vidal&lt;/p&gt;&#xa;&lt;/td&gt;&#xa;&lt;/tr&gt;&#xa;&lt;tr&gt;&#xa;&lt;td valign=&quot;top&quot; class=&quot;td1&quot;&gt;&#xa;&lt;p class=&quot;p2&quot;&gt;Descripción&lt;/p&gt;&#xa;&lt;/td&gt;&#xa;&lt;td valign=&quot;top&quot; class=&quot;td1&quot;&gt;&#xa;&lt;p class=&quot;p2&quot;&gt;Proceso para modificar producto existente&lt;/p&gt;&#xa;&lt;/td&gt;&#xa;&lt;/tr&gt;&#xa;&lt;tr&gt;&#xa;&lt;td valign=&quot;top&quot; class=&quot;td1&quot;&gt;&#xa;&lt;p class=&quot;p2&quot;&gt;Actores&lt;/p&gt;&#xa;&lt;/td&gt;&#xa;&lt;td valign=&quot;top&quot; class=&quot;td1&quot;&gt;&#xa;&lt;p class=&quot;p2&quot;&gt;Gestor&lt;/p&gt;&#xa;&lt;/td&gt;&#xa;&lt;/tr&gt;&#xa;&lt;tr&gt;&#xa;&lt;td valign=&quot;top&quot; class=&quot;td1&quot;&gt;&#xa;&lt;p class=&quot;p2&quot;&gt;Precondición&lt;/p&gt;&#xa;&lt;/td&gt;&#xa;&lt;td valign=&quot;top&quot; class=&quot;td1&quot;&gt;&#xa;&lt;p class=&quot;p2&quot;&gt;Usuario “logeado” y es gestor y producto a modificar existe&lt;/p&gt;&#xa;&lt;/td&gt;&#xa;&lt;/tr&gt;&#xa;&lt;tr&gt;&#xa;&lt;td valign=&quot;top&quot; class=&quot;td1&quot;&gt;&#xa;&lt;p class=&quot;p2&quot;&gt;Flujo principal&lt;/p&gt;&#xa;&lt;/td&gt;&#xa;&lt;td valign=&quot;top&quot; class=&quot;td1&quot;&gt;&#xa;&lt;p class=&quot;p2&quot;&gt;1.-Gestor pulsa el botón menú&lt;/p&gt;&#xa;&lt;p class=&quot;p2&quot;&gt;2.-Sistema muestra menú desplegable&lt;/p&gt;&#xa;&lt;p class=&quot;p2&quot;&gt;3.-Gestor pulsa botón gestionar productos&lt;/p&gt;&#xa;&lt;p class=&quot;p2&quot;&gt;4.-Sistema muestra opciones de gestión de productos&lt;/p&gt;&#xa;&lt;p class=&quot;p2&quot;&gt;5.-Gestor pulsa botón modificar producto&lt;/p&gt;&#xa;&lt;p class=&quot;p2&quot;&gt;6.-Sistema muestra listado de productos a cambiar&lt;/p&gt;&#xa;&lt;p class=&quot;p2&quot;&gt;7.-Gestor pulsa producto a cambiar&lt;/p&gt;&#xa;&lt;p class=&quot;p2&quot;&gt;8.-Sistema muestra formulario con campos input para modificar texto existente&lt;/p&gt;&#xa;&lt;p class=&quot;p2&quot;&gt;9.-Gestor modifica y envía formulario con botón&lt;/p&gt;&#xa;&lt;p class=&quot;p2&quot;&gt;10.-Sistema registra nuevos datos de producto&lt;/p&gt;&#xa;&lt;/td&gt;&#xa;&lt;/tr&gt;&#xa;&lt;tr&gt;&#xa;&lt;td valign=&quot;top&quot; class=&quot;td1&quot;&gt;&#xa;&lt;p class=&quot;p2&quot;&gt;Subflujo&lt;/p&gt;&#xa;&lt;/td&gt;&#xa;&lt;td valign=&quot;top&quot; class=&quot;td1&quot;&gt;&#xa;&lt;p class=&quot;p2&quot;&gt;- -&lt;/p&gt;&#xa;&lt;/td&gt;&#xa;&lt;/tr&gt;&#xa;&lt;tr&gt;&#xa;&lt;td valign=&quot;top&quot; class=&quot;td1&quot;&gt;&#xa;&lt;p class=&quot;p2&quot;&gt;Flujos alternativos&lt;/p&gt;&#xa;&lt;/td&gt;&#xa;&lt;td valign=&quot;top&quot; class=&quot;td1&quot;&gt;&#xa;&lt;p class=&quot;p2&quot;&gt;4a.-Gestor desea salir a la pantalla de inicio con botón salir&lt;/p&gt;&#xa;&lt;p class=&quot;p2&quot;&gt;6a.-Gestor desea salir a la pantalla de inicio con botón salir&lt;/p&gt;&#xa;&lt;p class=&quot;p2&quot;&gt;8a.-Gestor desea salir a la pantalla de inicio con botón salir&lt;/p&gt;&#xa;&lt;/td&gt;&#xa;&lt;/tr&gt;&#xa;&lt;tr&gt;&#xa;&lt;td valign=&quot;top&quot; class=&quot;td1&quot;&gt;&#xa;&lt;p class=&quot;p2&quot;&gt;Postcondicion&lt;/p&gt;&#xa;&lt;/td&gt;&#xa;&lt;td valign=&quot;top&quot; class=&quot;td1&quot;&gt;&#xa;&lt;p class=&quot;p2&quot;&gt;Producto modificado en sistema&lt;/p&gt;&#xa;&lt;/td&gt;&#xa;&lt;/tr&gt;&#xa;&lt;tr&gt;&#xa;&lt;td valign=&quot;top&quot; class=&quot;td1&quot;&gt;&#xa;&lt;p class=&quot;p2&quot;&gt;Requerimientos no funcionales&lt;/p&gt;&#xa;&lt;/td&gt;&#xa;&lt;td valign=&quot;top&quot; class=&quot;td1&quot;&gt;&#xa;&lt;p class=&quot;p2&quot;&gt;- -&lt;/p&gt;&#xa;&lt;/td&gt;&#xa;&lt;/tr&gt;&#xa;&lt;tr&gt;&#xa;&lt;td valign=&quot;top&quot; class=&quot;td1&quot;&gt;&#xa;&lt;p class=&quot;p2&quot;&gt;Prioridad&lt;/p&gt;&#xa;&lt;/td&gt;&#xa;&lt;td valign=&quot;top&quot; class=&quot;td1&quot;&gt;&#xa;&lt;p class=&quot;p2&quot;&gt;Media&lt;/p&gt;&#xa;&lt;/td&gt;&#xa;&lt;/tr&gt;&#xa;&lt;tr&gt;&#xa;&lt;td valign=&quot;top&quot; class=&quot;td1&quot;&gt;&#xa;&lt;p class=&quot;p2&quot;&gt;Comentarios&lt;/p&gt;&#xa;&lt;/td&gt;&#xa;&lt;td valign=&quot;top&quot; class=&quot;td1&quot;&gt;&#xa;&lt;p class=&quot;p2&quot;&gt;- -&lt;/p&gt;&#xa;&lt;/td&gt;&#xa;&lt;/tr&gt;&#xa;&lt;/tbody&gt;&#xa;&lt;/table&gt;&#xa;&lt;br&gt;&#xa;&lt;table cellspacing=&quot;0&quot; cellpadding=&quot;0&quot; class=&quot;t1&quot;&gt;&#xa;&lt;tbody&gt;&#xa;&lt;tr&gt;&#xa;&lt;td valign=&quot;top&quot; class=&quot;td1&quot;&gt;&#xa;&lt;p class=&quot;p2&quot;&gt;Caso de uso&lt;/p&gt;&#xa;&lt;/td&gt;&#xa;&lt;td valign=&quot;top&quot; class=&quot;td1&quot;&gt;&#xa;&lt;p class=&quot;p2&quot;&gt;Eliminar producto&lt;/p&gt;&#xa;&lt;/td&gt;&#xa;&lt;/tr&gt;&#xa;&lt;tr&gt;&#xa;&lt;td valign=&quot;top&quot; class=&quot;td1&quot;&gt;&#xa;&lt;p class=&quot;p2&quot;&gt;Versión&lt;span class=&quot;Apple-converted-space&quot;&gt;&amp;nbsp; &amp;nbsp; &amp;nbsp; &amp;nbsp; &amp;nbsp; &lt;/span&gt;01&lt;/p&gt;&#xa;&lt;/td&gt;&#xa;&lt;td valign=&quot;top&quot; class=&quot;td1&quot;&gt;&#xa;&lt;p class=&quot;p2&quot;&gt;Fecha&lt;span class=&quot;Apple-converted-space&quot;&gt;&amp;nbsp; &amp;nbsp; &amp;nbsp; &amp;nbsp; &amp;nbsp; &lt;/span&gt;06/07/2023&lt;/p&gt;&#xa;&lt;/td&gt;&#xa;&lt;/tr&gt;&#xa;&lt;tr&gt;&#xa;&lt;td valign=&quot;top&quot; class=&quot;td1&quot;&gt;&#xa;&lt;p class=&quot;p2&quot;&gt;Autor&lt;/p&gt;&#xa;&lt;/td&gt;&#xa;&lt;td valign=&quot;top&quot; class=&quot;td1&quot;&gt;&#xa;&lt;p class=&quot;p2&quot;&gt;Alejandro Fernández Vidal&lt;/p&gt;&#xa;&lt;/td&gt;&#xa;&lt;/tr&gt;&#xa;&lt;tr&gt;&#xa;&lt;td valign=&quot;top&quot; class=&quot;td1&quot;&gt;&#xa;&lt;p class=&quot;p2&quot;&gt;Descripción&lt;/p&gt;&#xa;&lt;/td&gt;&#xa;&lt;td valign=&quot;top&quot; class=&quot;td1&quot;&gt;&#xa;&lt;p class=&quot;p2&quot;&gt;Proceso para eliminar producto en sistema&lt;/p&gt;&#xa;&lt;/td&gt;&#xa;&lt;/tr&gt;&#xa;&lt;tr&gt;&#xa;&lt;td valign=&quot;top&quot; class=&quot;td1&quot;&gt;&#xa;&lt;p class=&quot;p2&quot;&gt;Actores&lt;/p&gt;&#xa;&lt;/td&gt;&#xa;&lt;td valign=&quot;top&quot; class=&quot;td1&quot;&gt;&#xa;&lt;p class=&quot;p2&quot;&gt;Gestor&lt;/p&gt;&#xa;&lt;/td&gt;&#xa;&lt;/tr&gt;&#xa;&lt;tr&gt;&#xa;&lt;td valign=&quot;top&quot; class=&quot;td1&quot;&gt;&#xa;&lt;p class=&quot;p2&quot;&gt;Precondición&lt;/p&gt;&#xa;&lt;/td&gt;&#xa;&lt;td valign=&quot;top&quot; class=&quot;td1&quot;&gt;&#xa;&lt;p class=&quot;p2&quot;&gt;Usuario “logeado” y es gestor y producto a eliminar existe&lt;/p&gt;&#xa;&lt;/td&gt;&#xa;&lt;/tr&gt;&#xa;&lt;tr&gt;&#xa;&lt;td valign=&quot;top&quot; class=&quot;td1&quot;&gt;&#xa;&lt;p class=&quot;p2&quot;&gt;Flujo principal&lt;/p&gt;&#xa;&lt;/td&gt;&#xa;&lt;td valign=&quot;top&quot; class=&quot;td1&quot;&gt;&#xa;&lt;p class=&quot;p2&quot;&gt;1.-Gestor pulsa el botón menú&lt;/p&gt;&#xa;&lt;p class=&quot;p2&quot;&gt;2.-Sistema muestra menú desplegable&lt;/p&gt;&#xa;&lt;p class=&quot;p2&quot;&gt;3.-Gestor pulsa botón gestionar productos&lt;/p&gt;&#xa;&lt;p class=&quot;p2&quot;&gt;4.-Sistema muestra opciones de gestión de productos&lt;/p&gt;&#xa;&lt;p class=&quot;p2&quot;&gt;5.-Gestor pulsa botón eliminar producto&lt;/p&gt;&#xa;&lt;p class=&quot;p2&quot;&gt;6.-Sistema muestra listado productos existentes para eliminar&lt;/p&gt;&#xa;&lt;p class=&quot;p2&quot;&gt;7.-Gestor pulsa en producto a eliminar&lt;/p&gt;&#xa;&lt;p class=&quot;p2&quot;&gt;8.-Sistema muestra mensaje de confirmación para eliminar producto&lt;/p&gt;&#xa;&lt;p class=&quot;p2&quot;&gt;9.-Gestor pulsa eliminar&lt;/p&gt;&#xa;&lt;/td&gt;&#xa;&lt;/tr&gt;&#xa;&lt;tr&gt;&#xa;&lt;td valign=&quot;top&quot; class=&quot;td1&quot;&gt;&#xa;&lt;p class=&quot;p2&quot;&gt;Subflujo&lt;/p&gt;&#xa;&lt;/td&gt;&#xa;&lt;td valign=&quot;top&quot; class=&quot;td1&quot;&gt;&#xa;&lt;p class=&quot;p2&quot;&gt;6a.-Gestor desplaza producto a la derecha y se elimina después de confirmar&lt;/p&gt;&#xa;&lt;/td&gt;&#xa;&lt;/tr&gt;&#xa;&lt;tr&gt;&#xa;&lt;td valign=&quot;top&quot; class=&quot;td1&quot;&gt;&#xa;&lt;p class=&quot;p2&quot;&gt;Flujos alternativos&lt;/p&gt;&#xa;&lt;/td&gt;&#xa;&lt;td valign=&quot;top&quot; class=&quot;td1&quot;&gt;&#xa;&lt;p class=&quot;p2&quot;&gt;4a.-Gestor desea salir a la pantalla de inicio con botón salir&lt;/p&gt;&#xa;&lt;p class=&quot;p2&quot;&gt;6a.-Gestor desea salir a la pantalla de inicio con botón salir&lt;/p&gt;&#xa;&lt;/td&gt;&#xa;&lt;/tr&gt;&#xa;&lt;tr&gt;&#xa;&lt;td valign=&quot;top&quot; class=&quot;td1&quot;&gt;&#xa;&lt;p class=&quot;p2&quot;&gt;Postcondicion&lt;/p&gt;&#xa;&lt;/td&gt;&#xa;&lt;td valign=&quot;top&quot; class=&quot;td1&quot;&gt;&#xa;&lt;p class=&quot;p2&quot;&gt;Producto eliminado del sistema&lt;/p&gt;&#xa;&lt;/td&gt;&#xa;&lt;/tr&gt;&#xa;&lt;tr&gt;&#xa;&lt;td valign=&quot;top&quot; class=&quot;td1&quot;&gt;&#xa;&lt;p class=&quot;p2&quot;&gt;Requerimientos no funcionales&lt;/p&gt;&#xa;&lt;/td&gt;&#xa;&lt;td valign=&quot;top&quot; class=&quot;td1&quot;&gt;&#xa;&lt;p class=&quot;p2&quot;&gt;- -&lt;/p&gt;&#xa;&lt;/td&gt;&#xa;&lt;/tr&gt;&#xa;&lt;tr&gt;&#xa;&lt;td valign=&quot;top&quot; class=&quot;td1&quot;&gt;&#xa;&lt;p class=&quot;p2&quot;&gt;Prioridad&lt;/p&gt;&#xa;&lt;/td&gt;&#xa;&lt;td valign=&quot;top&quot; class=&quot;td1&quot;&gt;&#xa;&lt;p class=&quot;p2&quot;&gt;Media&lt;/p&gt;&#xa;&lt;/td&gt;&#xa;&lt;/tr&gt;&#xa;&lt;tr&gt;&#xa;&lt;td valign=&quot;top&quot; class=&quot;td1&quot;&gt;&#xa;&lt;p class=&quot;p2&quot;&gt;Comentarios&lt;/p&gt;&#xa;&lt;/td&gt;&#xa;&lt;td valign=&quot;top&quot; class=&quot;td1&quot;&gt;&#xa;&lt;p class=&quot;p2&quot;&gt;- -&lt;/p&gt;&#xa;&lt;/td&gt;&#xa;&lt;/tr&gt;&#xa;&lt;/tbody&gt;&#xa;&lt;/table&gt;&#xa;&lt;br&gt;&#xa;&lt;table cellspacing=&quot;0&quot; cellpadding=&quot;0&quot; class=&quot;t1&quot;&gt;&#xa;&lt;tbody&gt;&#xa;&lt;tr&gt;&#xa;&lt;td valign=&quot;top&quot; class=&quot;td1&quot;&gt;&#xa;&lt;p class=&quot;p2&quot;&gt;Caso de uso&lt;/p&gt;&#xa;&lt;/td&gt;&#xa;&lt;td valign=&quot;top&quot; class=&quot;td1&quot;&gt;&#xa;&lt;p class=&quot;p2&quot;&gt;Gestión usuarios&lt;/p&gt;&#xa;&lt;/td&gt;&#xa;&lt;/tr&gt;&#xa;&lt;tr&gt;&#xa;&lt;td valign=&quot;top&quot; class=&quot;td1&quot;&gt;&#xa;&lt;p class=&quot;p2&quot;&gt;Versión &lt;span class=&quot;Apple-converted-space&quot;&gt;&amp;nbsp; &amp;nbsp; &amp;nbsp; &amp;nbsp; &lt;/span&gt;01&lt;/p&gt;&#xa;&lt;/td&gt;&#xa;&lt;td valign=&quot;top&quot; class=&quot;td1&quot;&gt;&#xa;&lt;p class=&quot;p2&quot;&gt;Fecha &lt;span class=&quot;Apple-converted-space&quot;&gt;&amp;nbsp; &amp;nbsp; &amp;nbsp; &amp;nbsp; &lt;/span&gt;06/07/2023&lt;/p&gt;&#xa;&lt;/td&gt;&#xa;&lt;/tr&gt;&#xa;&lt;tr&gt;&#xa;&lt;td valign=&quot;top&quot; class=&quot;td1&quot;&gt;&#xa;&lt;p class=&quot;p2&quot;&gt;Autor&lt;/p&gt;&#xa;&lt;/td&gt;&#xa;&lt;td valign=&quot;top&quot; class=&quot;td1&quot;&gt;&#xa;&lt;p class=&quot;p2&quot;&gt;Alejandro Fernández Vidal&lt;/p&gt;&#xa;&lt;/td&gt;&#xa;&lt;/tr&gt;&#xa;&lt;tr&gt;&#xa;&lt;td valign=&quot;top&quot; class=&quot;td1&quot;&gt;&#xa;&lt;p class=&quot;p2&quot;&gt;Descripción&lt;/p&gt;&#xa;&lt;/td&gt;&#xa;&lt;td valign=&quot;top&quot; class=&quot;td1&quot;&gt;&#xa;&lt;p class=&quot;p2&quot;&gt;Proceso de gestión de usuarios&lt;/p&gt;&#xa;&lt;/td&gt;&#xa;&lt;/tr&gt;&#xa;&lt;tr&gt;&#xa;&lt;td valign=&quot;top&quot; class=&quot;td1&quot;&gt;&#xa;&lt;p class=&quot;p2&quot;&gt;Actores&lt;/p&gt;&#xa;&lt;/td&gt;&#xa;&lt;td valign=&quot;top&quot; class=&quot;td1&quot;&gt;&#xa;&lt;p class=&quot;p2&quot;&gt;Administrador&lt;/p&gt;&#xa;&lt;/td&gt;&#xa;&lt;/tr&gt;&#xa;&lt;tr&gt;&#xa;&lt;td valign=&quot;top&quot; class=&quot;td1&quot;&gt;&#xa;&lt;p class=&quot;p2&quot;&gt;Precondición&lt;/p&gt;&#xa;&lt;/td&gt;&#xa;&lt;td valign=&quot;top&quot; class=&quot;td1&quot;&gt;&#xa;&lt;p class=&quot;p2&quot;&gt;Usuario “logeado” y usuario es administrador&lt;/p&gt;&#xa;&lt;/td&gt;&#xa;&lt;/tr&gt;&#xa;&lt;tr&gt;&#xa;&lt;td valign=&quot;top&quot; class=&quot;td1&quot;&gt;&#xa;&lt;p class=&quot;p2&quot;&gt;Flujo principal&lt;/p&gt;&#xa;&lt;/td&gt;&#xa;&lt;td valign=&quot;top&quot; class=&quot;td1&quot;&gt;&#xa;&lt;p class=&quot;p2&quot;&gt;1.-Administrador pulsa botón menú&lt;/p&gt;&#xa;&lt;p class=&quot;p2&quot;&gt;2.-Sistema muestra menú desplegable&lt;/p&gt;&#xa;&lt;p class=&quot;p2&quot;&gt;3.-Administrador pulsa botón gestionar usuarios&lt;/p&gt;&#xa;&lt;p class=&quot;p2&quot;&gt;4.-Sistema muestra opciones de gestión de usuarios&lt;/p&gt;&#xa;&lt;/td&gt;&#xa;&lt;/tr&gt;&#xa;&lt;tr&gt;&#xa;&lt;td valign=&quot;top&quot; class=&quot;td1&quot;&gt;&#xa;&lt;p class=&quot;p2&quot;&gt;Subflujo&lt;/p&gt;&#xa;&lt;/td&gt;&#xa;&lt;td valign=&quot;top&quot; class=&quot;td1&quot;&gt;&#xa;&lt;p class=&quot;p2&quot;&gt;- -&lt;/p&gt;&#xa;&lt;/td&gt;&#xa;&lt;/tr&gt;&#xa;&lt;tr&gt;&#xa;&lt;td valign=&quot;top&quot; class=&quot;td1&quot;&gt;&#xa;&lt;p class=&quot;p2&quot;&gt;Flujos alternativos&lt;/p&gt;&#xa;&lt;/td&gt;&#xa;&lt;td valign=&quot;top&quot; class=&quot;td1&quot;&gt;&#xa;&lt;p class=&quot;p2&quot;&gt;4a.-Administrador desea salir a la pantalla de inicio con botón salir&lt;/p&gt;&#xa;&lt;/td&gt;&#xa;&lt;/tr&gt;&#xa;&lt;tr&gt;&#xa;&lt;td valign=&quot;top&quot; class=&quot;td1&quot;&gt;&#xa;&lt;p class=&quot;p2&quot;&gt;Postcondicion&lt;/p&gt;&#xa;&lt;/td&gt;&#xa;&lt;td valign=&quot;top&quot; class=&quot;td1&quot;&gt;&#xa;&lt;p class=&quot;p2&quot;&gt;- -&lt;/p&gt;&#xa;&lt;/td&gt;&#xa;&lt;/tr&gt;&#xa;&lt;tr&gt;&#xa;&lt;td valign=&quot;top&quot; class=&quot;td1&quot;&gt;&#xa;&lt;p class=&quot;p2&quot;&gt;Requerimientos no funcionales&lt;/p&gt;&#xa;&lt;/td&gt;&#xa;&lt;td valign=&quot;top&quot; class=&quot;td1&quot;&gt;&#xa;&lt;p class=&quot;p2&quot;&gt;- -&lt;/p&gt;&#xa;&lt;/td&gt;&#xa;&lt;/tr&gt;&#xa;&lt;tr&gt;&#xa;&lt;td valign=&quot;top&quot; class=&quot;td1&quot;&gt;&#xa;&lt;p class=&quot;p2&quot;&gt;Prioridad&lt;/p&gt;&#xa;&lt;/td&gt;&#xa;&lt;td valign=&quot;top&quot; class=&quot;td1&quot;&gt;&#xa;&lt;p class=&quot;p2&quot;&gt;Alta&lt;/p&gt;&#xa;&lt;/td&gt;&#xa;&lt;/tr&gt;&#xa;&lt;tr&gt;&#xa;&lt;td valign=&quot;top&quot; class=&quot;td1&quot;&gt;&#xa;&lt;p class=&quot;p2&quot;&gt;Comentarios&lt;/p&gt;&#xa;&lt;/td&gt;&#xa;&lt;td valign=&quot;top&quot; class=&quot;td1&quot;&gt;&#xa;&lt;p class=&quot;p2&quot;&gt;- -&lt;/p&gt;&#xa;&lt;/td&gt;&#xa;&lt;/tr&gt;&#xa;&lt;/tbody&gt;&#xa;&lt;/table&gt;&#xa;&lt;br&gt;&#xa;&lt;table cellspacing=&quot;0&quot; cellpadding=&quot;0&quot; class=&quot;t1&quot;&gt;&#xa;&lt;tbody&gt;&#xa;&lt;tr&gt;&#xa;&lt;td valign=&quot;top&quot; class=&quot;td1&quot;&gt;&#xa;&lt;p class=&quot;p2&quot;&gt;Caso de uso&lt;/p&gt;&#xa;&lt;/td&gt;&#xa;&lt;td valign=&quot;top&quot; class=&quot;td1&quot;&gt;&#xa;&lt;p class=&quot;p2&quot;&gt;Crear usuario&lt;/p&gt;&#xa;&lt;/td&gt;&#xa;&lt;/tr&gt;&#xa;&lt;tr&gt;&#xa;&lt;td valign=&quot;top&quot; class=&quot;td1&quot;&gt;&#xa;&lt;p class=&quot;p2&quot;&gt;Versión &lt;span class=&quot;Apple-converted-space&quot;&gt;&amp;nbsp; &amp;nbsp; &amp;nbsp; &amp;nbsp; &amp;nbsp; &lt;/span&gt;01&lt;/p&gt;&#xa;&lt;/td&gt;&#xa;&lt;td valign=&quot;top&quot; class=&quot;td1&quot;&gt;&#xa;&lt;p class=&quot;p2&quot;&gt;Fecha&lt;span class=&quot;Apple-converted-space&quot;&gt;&amp;nbsp; &amp;nbsp; &amp;nbsp; &amp;nbsp; &amp;nbsp; &lt;/span&gt;06/07/2023&lt;/p&gt;&#xa;&lt;/td&gt;&#xa;&lt;/tr&gt;&#xa;&lt;tr&gt;&#xa;&lt;td valign=&quot;top&quot; class=&quot;td1&quot;&gt;&#xa;&lt;p class=&quot;p2&quot;&gt;Autor&lt;/p&gt;&#xa;&lt;/td&gt;&#xa;&lt;td valign=&quot;top&quot; class=&quot;td1&quot;&gt;&#xa;&lt;p class=&quot;p2&quot;&gt;Alejandro Fernández Vidal&lt;/p&gt;&#xa;&lt;/td&gt;&#xa;&lt;/tr&gt;&#xa;&lt;tr&gt;&#xa;&lt;td valign=&quot;top&quot; class=&quot;td1&quot;&gt;&#xa;&lt;p class=&quot;p2&quot;&gt;Descripción&lt;/p&gt;&#xa;&lt;/td&gt;&#xa;&lt;td valign=&quot;top&quot; class=&quot;td1&quot;&gt;&#xa;&lt;p class=&quot;p2&quot;&gt;Proceso para crear usuario&lt;/p&gt;&#xa;&lt;/td&gt;&#xa;&lt;/tr&gt;&#xa;&lt;tr&gt;&#xa;&lt;td valign=&quot;top&quot; class=&quot;td1&quot;&gt;&#xa;&lt;p class=&quot;p2&quot;&gt;Actores&lt;/p&gt;&#xa;&lt;/td&gt;&#xa;&lt;td valign=&quot;top&quot; class=&quot;td1&quot;&gt;&#xa;&lt;p class=&quot;p2&quot;&gt;Administrador&lt;/p&gt;&#xa;&lt;/td&gt;&#xa;&lt;/tr&gt;&#xa;&lt;tr&gt;&#xa;&lt;td valign=&quot;top&quot; class=&quot;td1&quot;&gt;&#xa;&lt;p class=&quot;p2&quot;&gt;Precondición&lt;/p&gt;&#xa;&lt;/td&gt;&#xa;&lt;td valign=&quot;top&quot; class=&quot;td1&quot;&gt;&#xa;&lt;p class=&quot;p2&quot;&gt;Usuario “logeado” y es Administrador&lt;/p&gt;&#xa;&lt;/td&gt;&#xa;&lt;/tr&gt;&#xa;&lt;tr&gt;&#xa;&lt;td valign=&quot;top&quot; class=&quot;td1&quot;&gt;&#xa;&lt;p class=&quot;p2&quot;&gt;Flujo principal&lt;/p&gt;&#xa;&lt;/td&gt;&#xa;&lt;td valign=&quot;top&quot; class=&quot;td1&quot;&gt;&#xa;&lt;p class=&quot;p2&quot;&gt;1.-Administrador pulsa botón menú&lt;/p&gt;&#xa;&lt;p class=&quot;p2&quot;&gt;2.-Sistema muestra menú desplegable&lt;/p&gt;&#xa;&lt;p class=&quot;p2&quot;&gt;3.-Administrador pulsa botón gestionar usuarios&lt;/p&gt;&#xa;&lt;p class=&quot;p2&quot;&gt;4.-Sistema muestra opciones de gestión de usuarios&lt;/p&gt;&#xa;&lt;p class=&quot;p2&quot;&gt;5.-Administrador pulsa botón crear usuario&lt;/p&gt;&#xa;&lt;p class=&quot;p2&quot;&gt;6.-Sistema muestra formulario de creación de usuario&lt;/p&gt;&#xa;&lt;p class=&quot;p2&quot;&gt;7.-Administrador rellana y envía mediante botón formulario&lt;/p&gt;&#xa;&lt;p class=&quot;p2&quot;&gt;8.-Sistema registra nuevo usuario&lt;/p&gt;&#xa;&lt;/td&gt;&#xa;&lt;/tr&gt;&#xa;&lt;tr&gt;&#xa;&lt;td valign=&quot;top&quot; class=&quot;td1&quot;&gt;&#xa;&lt;p class=&quot;p2&quot;&gt;Subflujo&lt;/p&gt;&#xa;&lt;/td&gt;&#xa;&lt;td valign=&quot;top&quot; class=&quot;td1&quot;&gt;&#xa;&lt;p class=&quot;p2&quot;&gt;—&lt;/p&gt;&#xa;&lt;/td&gt;&#xa;&lt;/tr&gt;&#xa;&lt;tr&gt;&#xa;&lt;td valign=&quot;top&quot; class=&quot;td1&quot;&gt;&#xa;&lt;p class=&quot;p2&quot;&gt;Flujos alternativos&lt;/p&gt;&#xa;&lt;/td&gt;&#xa;&lt;td valign=&quot;top&quot; class=&quot;td1&quot;&gt;&#xa;&lt;p class=&quot;p2&quot;&gt;4a.-Administrador desea salir a la pantalla de inicio con botón salir&lt;/p&gt;&#xa;&lt;p class=&quot;p2&quot;&gt;6a.-Administrador desea salir a la pantalla de inicio con botón salir&lt;/p&gt;&#xa;&lt;p class=&quot;p2&quot;&gt;7a.-Formulario sin rellenar sale mensaje de error introduce algún valor&lt;/p&gt;&#xa;&lt;/td&gt;&#xa;&lt;/tr&gt;&#xa;&lt;tr&gt;&#xa;&lt;td valign=&quot;top&quot; class=&quot;td1&quot;&gt;&#xa;&lt;p class=&quot;p2&quot;&gt;Postcondicion&lt;/p&gt;&#xa;&lt;/td&gt;&#xa;&lt;td valign=&quot;top&quot; class=&quot;td1&quot;&gt;&#xa;&lt;p class=&quot;p2&quot;&gt;Sistema registra nuevo usuario&lt;/p&gt;&#xa;&lt;/td&gt;&#xa;&lt;/tr&gt;&#xa;&lt;tr&gt;&#xa;&lt;td valign=&quot;top&quot; class=&quot;td1&quot;&gt;&#xa;&lt;p class=&quot;p2&quot;&gt;Requerimientos no funcionales&lt;/p&gt;&#xa;&lt;/td&gt;&#xa;&lt;td valign=&quot;top&quot; class=&quot;td1&quot;&gt;&#xa;&lt;p class=&quot;p2&quot;&gt;- -&lt;/p&gt;&#xa;&lt;/td&gt;&#xa;&lt;/tr&gt;&#xa;&lt;tr&gt;&#xa;&lt;td valign=&quot;top&quot; class=&quot;td1&quot;&gt;&#xa;&lt;p class=&quot;p2&quot;&gt;Prioridad&lt;/p&gt;&#xa;&lt;/td&gt;&#xa;&lt;td valign=&quot;top&quot; class=&quot;td1&quot;&gt;&#xa;&lt;p class=&quot;p2&quot;&gt;Alta&lt;/p&gt;&#xa;&lt;/td&gt;&#xa;&lt;/tr&gt;&#xa;&lt;tr&gt;&#xa;&lt;td valign=&quot;top&quot; class=&quot;td1&quot;&gt;&#xa;&lt;p class=&quot;p2&quot;&gt;Comentarios&lt;/p&gt;&#xa;&lt;/td&gt;&#xa;&lt;td valign=&quot;top&quot; class=&quot;td1&quot;&gt;&#xa;&lt;p class=&quot;p2&quot;&gt;- -&lt;/p&gt;&#xa;&lt;/td&gt;&#xa;&lt;/tr&gt;&#xa;&lt;/tbody&gt;&#xa;&lt;/table&gt;&#xa;&lt;br&gt;&#xa;&lt;table cellspacing=&quot;0&quot; cellpadding=&quot;0&quot; class=&quot;t1&quot;&gt;&#xa;&lt;tbody&gt;&#xa;&lt;tr&gt;&#xa;&lt;td valign=&quot;top&quot; class=&quot;td1&quot;&gt;&#xa;&lt;p class=&quot;p2&quot;&gt;Caso de uso&lt;/p&gt;&#xa;&lt;/td&gt;&#xa;&lt;td valign=&quot;top&quot; class=&quot;td1&quot;&gt;&#xa;&lt;p class=&quot;p2&quot;&gt;Modificar usuario&lt;/p&gt;&#xa;&lt;/td&gt;&#xa;&lt;/tr&gt;&#xa;&lt;tr&gt;&#xa;&lt;td valign=&quot;top&quot; class=&quot;td1&quot;&gt;&#xa;&lt;p class=&quot;p2&quot;&gt;Versión&lt;span class=&quot;Apple-converted-space&quot;&gt;&amp;nbsp; &amp;nbsp; &amp;nbsp; &amp;nbsp; &amp;nbsp; &lt;/span&gt;01&lt;/p&gt;&#xa;&lt;/td&gt;&#xa;&lt;td valign=&quot;top&quot; class=&quot;td1&quot;&gt;&#xa;&lt;p class=&quot;p2&quot;&gt;Fecha&lt;span class=&quot;Apple-converted-space&quot;&gt;&amp;nbsp; &amp;nbsp; &amp;nbsp; &amp;nbsp; &amp;nbsp; &lt;/span&gt;06/07/2023&lt;/p&gt;&#xa;&lt;/td&gt;&#xa;&lt;/tr&gt;&#xa;&lt;tr&gt;&#xa;&lt;td valign=&quot;top&quot; class=&quot;td1&quot;&gt;&#xa;&lt;p class=&quot;p2&quot;&gt;Autor&lt;/p&gt;&#xa;&lt;/td&gt;&#xa;&lt;td valign=&quot;top&quot; class=&quot;td1&quot;&gt;&#xa;&lt;p class=&quot;p2&quot;&gt;Alejandro Fernández Vidal&lt;/p&gt;&#xa;&lt;/td&gt;&#xa;&lt;/tr&gt;&#xa;&lt;tr&gt;&#xa;&lt;td valign=&quot;top&quot; class=&quot;td1&quot;&gt;&#xa;&lt;p class=&quot;p2&quot;&gt;Descripción&lt;/p&gt;&#xa;&lt;/td&gt;&#xa;&lt;td valign=&quot;top&quot; class=&quot;td1&quot;&gt;&#xa;&lt;p class=&quot;p2&quot;&gt;Proceso para que administrador modifique usuario existente&lt;/p&gt;&#xa;&lt;/td&gt;&#xa;&lt;/tr&gt;&#xa;&lt;tr&gt;&#xa;&lt;td valign=&quot;top&quot; class=&quot;td1&quot;&gt;&#xa;&lt;p class=&quot;p2&quot;&gt;Actores&lt;/p&gt;&#xa;&lt;/td&gt;&#xa;&lt;td valign=&quot;top&quot; class=&quot;td1&quot;&gt;&#xa;&lt;p class=&quot;p2&quot;&gt;Administrador&lt;/p&gt;&#xa;&lt;/td&gt;&#xa;&lt;/tr&gt;&#xa;&lt;tr&gt;&#xa;&lt;td valign=&quot;top&quot; class=&quot;td1&quot;&gt;&#xa;&lt;p class=&quot;p2&quot;&gt;Precondición&lt;/p&gt;&#xa;&lt;/td&gt;&#xa;&lt;td valign=&quot;top&quot; class=&quot;td1&quot;&gt;&#xa;&lt;p class=&quot;p2&quot;&gt;Usuario “logeado” y es Administrador&lt;/p&gt;&#xa;&lt;/td&gt;&#xa;&lt;/tr&gt;&#xa;&lt;tr&gt;&#xa;&lt;td valign=&quot;top&quot; class=&quot;td1&quot;&gt;&#xa;&lt;p class=&quot;p2&quot;&gt;Flujo principal&lt;/p&gt;&#xa;&lt;/td&gt;&#xa;&lt;td valign=&quot;top&quot; class=&quot;td1&quot;&gt;&#xa;&lt;p class=&quot;p2&quot;&gt;1.-Administrador pulsa botón menú&lt;/p&gt;&#xa;&lt;p class=&quot;p2&quot;&gt;2.-Sistema muestra menú desplegable&lt;/p&gt;&#xa;&lt;p class=&quot;p2&quot;&gt;3.-Administrador pulsa botón gestionar usuarios&lt;/p&gt;&#xa;&lt;p class=&quot;p2&quot;&gt;4.-Sistema muestra opciones de gestión de usuarios&lt;/p&gt;&#xa;&lt;p class=&quot;p2&quot;&gt;5.-Administrador pulsa botón modificar usuario&lt;/p&gt;&#xa;&lt;p class=&quot;p2&quot;&gt;6.-Sistema muestra listado de usuarios para modificar&lt;/p&gt;&#xa;&lt;p class=&quot;p2&quot;&gt;7.-Administrador selecciona usuario a modificar&lt;/p&gt;&#xa;&lt;p class=&quot;p2&quot;&gt;8.-Sistema muestra formulario con los campos del usuario indicado&lt;/p&gt;&#xa;&lt;p class=&quot;p2&quot;&gt;9.-Administrador modifica campos que desea y envía mediante botón el formulario&lt;/p&gt;&#xa;&lt;p class=&quot;p2&quot;&gt;10.-Sistema guarda los cambios en usuario&lt;/p&gt;&#xa;&lt;/td&gt;&#xa;&lt;/tr&gt;&#xa;&lt;tr&gt;&#xa;&lt;td valign=&quot;top&quot; class=&quot;td1&quot;&gt;&#xa;&lt;p class=&quot;p2&quot;&gt;Subflujo&lt;/p&gt;&#xa;&lt;/td&gt;&#xa;&lt;td valign=&quot;top&quot; class=&quot;td1&quot;&gt;&#xa;&lt;p class=&quot;p2&quot;&gt;- -&lt;/p&gt;&#xa;&lt;/td&gt;&#xa;&lt;/tr&gt;&#xa;&lt;tr&gt;&#xa;&lt;td valign=&quot;top&quot; class=&quot;td1&quot;&gt;&#xa;&lt;p class=&quot;p2&quot;&gt;Flujos alternativos&lt;/p&gt;&#xa;&lt;/td&gt;&#xa;&lt;td valign=&quot;top&quot; class=&quot;td1&quot;&gt;&#xa;&lt;p class=&quot;p2&quot;&gt;4a.-Administrador desea salir a la pantalla de inicio con botón salir&lt;/p&gt;&#xa;&lt;p class=&quot;p2&quot;&gt;6a.-Administrador desea salir a la pantalla de inicio con botón salir&lt;/p&gt;&#xa;&lt;p class=&quot;p2&quot;&gt;8a-Administrador desea salir a la pantalla de inicio con botón salir&lt;/p&gt;&#xa;&lt;p class=&quot;p2&quot;&gt;9a.-Formulario sin rellenar sale mensaje de error introduce algún valor&lt;/p&gt;&#xa;&lt;/td&gt;&#xa;&lt;/tr&gt;&#xa;&lt;tr&gt;&#xa;&lt;td valign=&quot;top&quot; class=&quot;td1&quot;&gt;&#xa;&lt;p class=&quot;p2&quot;&gt;Postcondicion&lt;/p&gt;&#xa;&lt;/td&gt;&#xa;&lt;td valign=&quot;top&quot; class=&quot;td1&quot;&gt;&#xa;&lt;p class=&quot;p2&quot;&gt;Sistema guarda usuario modificado&lt;/p&gt;&#xa;&lt;/td&gt;&#xa;&lt;/tr&gt;&#xa;&lt;tr&gt;&#xa;&lt;td valign=&quot;top&quot; class=&quot;td1&quot;&gt;&#xa;&lt;p class=&quot;p2&quot;&gt;Requerimientos no funcionales&lt;/p&gt;&#xa;&lt;/td&gt;&#xa;&lt;td valign=&quot;top&quot; class=&quot;td1&quot;&gt;&#xa;&lt;p class=&quot;p2&quot;&gt;- -&lt;/p&gt;&#xa;&lt;/td&gt;&#xa;&lt;/tr&gt;&#xa;&lt;tr&gt;&#xa;&lt;td valign=&quot;top&quot; class=&quot;td1&quot;&gt;&#xa;&lt;p class=&quot;p2&quot;&gt;Prioridad&lt;/p&gt;&#xa;&lt;/td&gt;&#xa;&lt;td valign=&quot;top&quot; class=&quot;td1&quot;&gt;&#xa;&lt;p class=&quot;p2&quot;&gt;Media&lt;/p&gt;&#xa;&lt;/td&gt;&#xa;&lt;/tr&gt;&#xa;&lt;tr&gt;&#xa;&lt;td valign=&quot;top&quot; class=&quot;td1&quot;&gt;&#xa;&lt;p class=&quot;p2&quot;&gt;Comentarios&lt;/p&gt;&#xa;&lt;/td&gt;&#xa;&lt;td valign=&quot;top&quot; class=&quot;td1&quot;&gt;&#xa;&lt;p class=&quot;p2&quot;&gt;- -&lt;/p&gt;&#xa;&lt;/td&gt;&#xa;&lt;/tr&gt;&#xa;&lt;/tbody&gt;&#xa;&lt;/table&gt;&#xa;&lt;br&gt;&#xa;&lt;table cellspacing=&quot;0&quot; cellpadding=&quot;0&quot; class=&quot;t1&quot;&gt;&#xa;&lt;tbody&gt;&#xa;&lt;tr&gt;&#xa;&lt;td valign=&quot;top&quot; class=&quot;td1&quot;&gt;&#xa;&lt;p class=&quot;p2&quot;&gt;Caso de uso&lt;/p&gt;&#xa;&lt;/td&gt;&#xa;&lt;td valign=&quot;top&quot; class=&quot;td1&quot;&gt;&#xa;&lt;p class=&quot;p2&quot;&gt;Eliminar usuario&lt;/p&gt;&#xa;&lt;/td&gt;&#xa;&lt;/tr&gt;&#xa;&lt;tr&gt;&#xa;&lt;td valign=&quot;top&quot; class=&quot;td1&quot;&gt;&#xa;&lt;p class=&quot;p2&quot;&gt;Versión &lt;span class=&quot;Apple-converted-space&quot;&gt;&amp;nbsp; &amp;nbsp; &amp;nbsp; &amp;nbsp; &lt;/span&gt;01&lt;/p&gt;&#xa;&lt;/td&gt;&#xa;&lt;td valign=&quot;top&quot; class=&quot;td1&quot;&gt;&#xa;&lt;p class=&quot;p2&quot;&gt;Fecha. &lt;span class=&quot;Apple-converted-space&quot;&gt;&amp;nbsp; &amp;nbsp; &amp;nbsp; &amp;nbsp; &lt;/span&gt;06/07/2023&lt;/p&gt;&#xa;&lt;/td&gt;&#xa;&lt;/tr&gt;&#xa;&lt;tr&gt;&#xa;&lt;td valign=&quot;top&quot; class=&quot;td1&quot;&gt;&#xa;&lt;p class=&quot;p2&quot;&gt;Autor&lt;/p&gt;&#xa;&lt;/td&gt;&#xa;&lt;td valign=&quot;top&quot; class=&quot;td1&quot;&gt;&#xa;&lt;p class=&quot;p2&quot;&gt;Alejandro Fernández Vidal&lt;/p&gt;&#xa;&lt;/td&gt;&#xa;&lt;/tr&gt;&#xa;&lt;tr&gt;&#xa;&lt;td valign=&quot;top&quot; class=&quot;td1&quot;&gt;&#xa;&lt;p class=&quot;p2&quot;&gt;Descripción&lt;/p&gt;&#xa;&lt;/td&gt;&#xa;&lt;td valign=&quot;top&quot; class=&quot;td1&quot;&gt;&#xa;&lt;p class=&quot;p2&quot;&gt;Proceso para eliminar usuario siendo administrador&lt;/p&gt;&#xa;&lt;/td&gt;&#xa;&lt;/tr&gt;&#xa;&lt;tr&gt;&#xa;&lt;td valign=&quot;top&quot; class=&quot;td1&quot;&gt;&#xa;&lt;p class=&quot;p2&quot;&gt;Actores&lt;/p&gt;&#xa;&lt;/td&gt;&#xa;&lt;td valign=&quot;top&quot; class=&quot;td1&quot;&gt;&#xa;&lt;p class=&quot;p2&quot;&gt;Administrador&lt;/p&gt;&#xa;&lt;/td&gt;&#xa;&lt;/tr&gt;&#xa;&lt;tr&gt;&#xa;&lt;td valign=&quot;top&quot; class=&quot;td1&quot;&gt;&#xa;&lt;p class=&quot;p2&quot;&gt;Precondición&lt;/p&gt;&#xa;&lt;/td&gt;&#xa;&lt;td valign=&quot;top&quot; class=&quot;td1&quot;&gt;&#xa;&lt;p class=&quot;p2&quot;&gt;Usuario “logeado” y es Administrador&lt;/p&gt;&#xa;&lt;/td&gt;&#xa;&lt;/tr&gt;&#xa;&lt;tr&gt;&#xa;&lt;td valign=&quot;top&quot; class=&quot;td1&quot;&gt;&#xa;&lt;p class=&quot;p2&quot;&gt;Flujo principal&lt;/p&gt;&#xa;&lt;/td&gt;&#xa;&lt;td valign=&quot;top&quot; class=&quot;td1&quot;&gt;&#xa;&lt;p class=&quot;p2&quot;&gt;1.-Administrador pulsa botón menú&lt;/p&gt;&#xa;&lt;p class=&quot;p2&quot;&gt;2.-Sistema muestra menú desplegable&lt;/p&gt;&#xa;&lt;p class=&quot;p2&quot;&gt;3.-Administrador pulsa botón gestionar usuarios&lt;/p&gt;&#xa;&lt;p class=&quot;p2&quot;&gt;4.-Sistema muestra opciones de gestión de usuarios&lt;/p&gt;&#xa;&lt;p class=&quot;p2&quot;&gt;5.-Administrador pulsa botón eliminar usuario&lt;/p&gt;&#xa;&lt;p class=&quot;p2&quot;&gt;6.-Sistema muestra listado de usuarios para eliminar&lt;/p&gt;&#xa;&lt;p class=&quot;p2&quot;&gt;7.-Administrador selecciona usuario a eliminar&lt;/p&gt;&#xa;&lt;p class=&quot;p2&quot;&gt;8.-Sistema muestra mensaje de confirmación para eliminar usuario&lt;/p&gt;&#xa;&lt;p class=&quot;p2&quot;&gt;9.-Administrador confirma eliminar&lt;/p&gt;&#xa;&lt;/td&gt;&#xa;&lt;/tr&gt;&#xa;&lt;tr&gt;&#xa;&lt;td valign=&quot;top&quot; class=&quot;td1&quot;&gt;&#xa;&lt;p class=&quot;p2&quot;&gt;Subflujo&lt;/p&gt;&#xa;&lt;/td&gt;&#xa;&lt;td valign=&quot;top&quot; class=&quot;td1&quot;&gt;&#xa;&lt;p class=&quot;p2&quot;&gt;7a.-Administrador desliza usuario al lado derecho y se elimina al confirmar&lt;/p&gt;&#xa;&lt;/td&gt;&#xa;&lt;/tr&gt;&#xa;&lt;tr&gt;&#xa;&lt;td valign=&quot;top&quot; class=&quot;td1&quot;&gt;&#xa;&lt;p class=&quot;p2&quot;&gt;Flujos alternativos&lt;/p&gt;&#xa;&lt;/td&gt;&#xa;&lt;td valign=&quot;top&quot; class=&quot;td1&quot;&gt;&#xa;&lt;p class=&quot;p2&quot;&gt;4a.-Administrador desea salir a la pantalla de inicio con botón salir&lt;/p&gt;&#xa;&lt;p class=&quot;p2&quot;&gt;6a.-Administrador desea salir a la pantalla de inicio con botón salir&lt;/p&gt;&#xa;&lt;p class=&quot;p2&quot;&gt;7a.-Si es administrador no se podrá eliminar&lt;/p&gt;&#xa;&lt;/td&gt;&#xa;&lt;/tr&gt;&#xa;&lt;tr&gt;&#xa;&lt;td valign=&quot;top&quot; class=&quot;td1&quot;&gt;&#xa;&lt;p class=&quot;p2&quot;&gt;Postcondicion&lt;/p&gt;&#xa;&lt;/td&gt;&#xa;&lt;td valign=&quot;top&quot; class=&quot;td1&quot;&gt;&#xa;&lt;p class=&quot;p2&quot;&gt;Usuario eliminado del sistema&lt;/p&gt;&#xa;&lt;/td&gt;&#xa;&lt;/tr&gt;&#xa;&lt;tr&gt;&#xa;&lt;td valign=&quot;top&quot; class=&quot;td1&quot;&gt;&#xa;&lt;p class=&quot;p2&quot;&gt;Requerimientos no funcionales&lt;/p&gt;&#xa;&lt;/td&gt;&#xa;&lt;td valign=&quot;top&quot; class=&quot;td1&quot;&gt;&#xa;&lt;p class=&quot;p2&quot;&gt;- -&lt;/p&gt;&#xa;&lt;/td&gt;&#xa;&lt;/tr&gt;&#xa;&lt;tr&gt;&#xa;&lt;td valign=&quot;top&quot; class=&quot;td1&quot;&gt;&#xa;&lt;p class=&quot;p2&quot;&gt;Prioridad&lt;/p&gt;&#xa;&lt;/td&gt;&#xa;&lt;td valign=&quot;top&quot; class=&quot;td1&quot;&gt;&#xa;&lt;p class=&quot;p2&quot;&gt;Media&lt;/p&gt;&#xa;&lt;/td&gt;&#xa;&lt;/tr&gt;&#xa;&lt;tr&gt;&#xa;&lt;td valign=&quot;top&quot; class=&quot;td1&quot;&gt;&#xa;&lt;p class=&quot;p2&quot;&gt;Comentarios&lt;/p&gt;&#xa;&lt;/td&gt;&#xa;&lt;td valign=&quot;top&quot; class=&quot;td1&quot;&gt;&#xa;&lt;p class=&quot;p2&quot;&gt;- -&lt;/p&gt;&#xa;&lt;/td&gt;&#xa;&lt;/tr&gt;&#xa;&lt;/tbody&gt;&#xa;&lt;/table&gt;" style="text;whiteSpace=wrap;html=1;" vertex="1" parent="1">
          <mxGeometry x="10" y="10" width="560" height="23580" as="geometry" />
        </mxCell>
      </root>
    </mxGraphModel>
  </diagram>
</mxfile>
